<svg xmlns="http://www.w3.org/2000/svg" xmlns:xlink="http://www.w3.org/1999/xlink" xmlns:ev="http://www.w3.org/2001/xml-events" width="100%" height="100%" xml:space="preserve" color-interpolation-filters="sRGB" class="st10">
	

	<style type="text/css">
	.st1 {fill:#ffffff;stroke:#000000;stroke-linecap:round;stroke-linejoin:round;stroke-width:0.24;}
	.st2 {fill:#000000;font-family:Calibri;font-size:0.666664em;}
	.st3 {font-size:1em;}
	.st4 {fill:#a5a5a5;stroke:#000000;stroke-linecap:round;stroke-linejoin:round;stroke-width:0.24;}
	.st5 {marker-end:url(#mrkr4-35);stroke:#000000;stroke-linecap:round;stroke-linejoin:round;stroke-width:0.75;}
	.st6 {fill:#000000;fill-opacity:1;stroke:#000000;stroke-opacity:1;stroke-width:0.22935779816514;}
	.st7 {fill:#ffffff;stroke:none;stroke-linecap:butt;stroke-width:7.2;}
	.st8 {marker-start:url(#mrkr4-43);stroke:#000000;stroke-linecap:round;stroke-linejoin:round;stroke-width:0.75;}
	.st9 {fill:#ffffff;stroke:none;stroke-linecap:butt;}
	.st10 {fill:none;fill-rule:evenodd;font-size:12px;overflow:hidden;stroke-linecap:square;stroke-miterlimit:3;}
</style>

	<defs id="Markers">
		<g id="lend4">
			<path d="M 2 1 L 0 0 L 2 -1 L 2 1 " style="stroke:none" />
		</g>
		<marker style="overflow:visible" id="mrkr4-35" class="st6" refX="-8.24" orient="auto" markerUnits="strokeWidth" overflow="visible">
			<use xlink:href="#lend4" transform="scale(-4.36,-4.36) " />
		</marker>
		<marker style="overflow:visible" id="mrkr4-43" class="st6" refX="8.24" orient="auto" markerUnits="strokeWidth" overflow="visible">
			<use xlink:href="#lend4" transform="scale(4.36) " />
		</marker>
	</defs>
	<g id="viewport">
		
		
		
		
		
		<g id="shape1" transform="translate(49.5,-270)" class="external-interactor">
			
			<desc>Customers</desc>
			
			
			
			
			<rect x="0" y="297" width="54" height="27" class="st1" />
			<text x="9.61" y="312.9" class="st2">Customers</text>		</g>
		<g id="shape2" transform="translate(112.5,-180)" class="data-process">
			
			<desc>Receive Order</desc>
			
			
			
			
			<path d="M0 297 A27 27 0 0 1 54 297 A27 27 0 1 1 0 297 Z" class="st1" />
			<text x="14.44" y="294.6" class="st2">Receive <tspan x="17.47" dy="1.2em" class="st3">Order</tspan></text>		</g>
		<g id="shape3" transform="translate(337.5,-270)" class="external-interactor">
			
			<desc>Ware house</desc>
			
			
			
			
			<rect x="0" y="297" width="54" height="27" class="st4" />
			<text x="7.37" y="312.9" class="st2">Ware house</text>		</g>
		<g id="shape4" transform="translate(355.5,-180)" class="data-process">
			
			<desc>Ship Books</desc>
			
			
			
			
			<path d="M0 297 A27 27 0 0 1 54 297 A27 27 0 1 1 0 297 Z" class="st4" />
			<text x="9.36" y="299.4" class="st2">Ship Books</text>		</g>
		<g id="shape5" transform="translate(391.5,-117)" class="external-interactor">
			
			<desc>Customers</desc>
			
			
			
			
			<rect x="0" y="297" width="54" height="27" class="st4" />
			<text x="9.61" y="312.9" class="st2">Customers</text>		</g>
		<g id="shape9" transform="translate(202.5,-270)" class="external-interactor">
			
			<desc>Orders</desc>
			
			
			
			
			<rect x="0" y="297" width="54" height="27" class="st1" />
			<text x="15.91" y="312.9" class="st2">Orders</text>		</g>
		<g id="shape17" transform="translate(211.5,-153)" class="external-interactor">
			
			<desc>Customers</desc>
			
			
			
			
			<rect x="0" y="297" width="54" height="27" class="st1" />
			<text x="9.61" y="312.9" class="st2">Customers</text>		</g>
		<g id="shape20" transform="translate(148.5,-36)" class="data-process">
			
			<desc>Collect Payment</desc>
			
			
			
			
			<path d="M0 297 A27 27 0 0 1 54 297 A27 27 0 1 1 0 297 Z" class="st1" />
			<text x="15.9" y="294.6" class="st2">Collect<tspan x="12.58" dy="1.2em" class="st3">Payment</tspan></text>		</g>
		<g id="shape35" transform="translate(76.5,-117)" class="external-interactor">
			
			<desc>Invoices</desc>
			
			
			
			
			<rect x="0" y="297" width="54" height="27" class="st1" />
			<text x="13.81" y="312.9" class="st2">Invoices</text>		</g>
		<g id="shape6" transform="translate(76.5,-270)" class="dynamic-connector">
			
			<desc>Orders</desc>
			
			
			
			
			<path d="M0 324 C-0 339.75 0 365.06 7.75 376.81 C12.95 384.7 21.63 386.48 29.46 386.88 L29.82 386.89" class="st5" />
			<rect x="-29.0937" y="359.898" width="22.1874" height="9.59985" class="st7" />
			<text x="-29.09" y="367.1" class="st2">Orders</text>		</g>
		<g id="shape8" transform="translate(103.5,-283.5)" class="dynamic-connector">
			
			<desc>Invalid orders</desc>
			
			
			
			
			<path d="M6.18 324.09 L6.54 324.1 C14.49 324.43 23.43 325.91 28.65 332.5 C36 341.76 36 361.12 36 373.5" class="st8" />
			<rect x="29.387" y="310.398" width="44.457" height="9.59985" class="st7" />
			<text x="29.39" y="317.6" class="st2">Invalid orders</text>		</g>
		<g id="shape10" transform="translate(202.5,-283.5)" class="dynamic-connector">
			
			<desc>Order details</desc>
			
			
			
			
			<path d="M-6.18 324.02 L-6.54 324.02 C-21.89 324.17 -41.69 325.29 -51.96 333.91 C-63 343.18 -63 361.12 -63 373.5" class="st8" />
			<rect x="-42.5871" y="345.801" width="21.4956" height="19.1997" class="st7" />
			<text x="-41.37" y="353" class="st2">Order<tspan x="-42.59" dy="1.2em" class="st3">details</tspan></text>		</g>
		<g id="shape11" transform="translate(229.5,-270)" class="dynamic-connector">
			
			<desc>Shipping Details</desc>
			
			
			
			
			<path d="M0 324 C0 339.75 -0 361.38 19.8 373.1 C41.69 386.07 87.8 386.94 119.46 387 L119.82 387" class="st5" />
			<rect x="31.0373" y="345.702" width="27.9253" height="19.1997" class="st7" />
			<text x="31.04" y="352.9" class="st2">Shipping <tspan x="33.89" dy="1.2em" class="st3">Details</tspan></text>		</g>
		<g id="shape14" transform="translate(382.5,-234)" class="dynamic-connector">
			
			<desc>Books</desc>
			
			
			
			
			<path d="M-0.87 317.88 L-0.92 317.53 C-4.59 305.66 -18 303.53 -18 288" class="st8" />
			<rect x="-3.83972" y="296.898" width="19.5546" height="9.59985" class="st7" />
			<text x="-3.84" y="304.1" class="st2">Books</text>		</g>
		<g id="shape15" transform="translate(418.5,-144)" class="dynamic-connector">
			
			<desc>Books</desc>
			
			
			
			
			<path d="M-1.64 318.04 L-1.74 317.69 C-8.93 305.68 -36 303.61 -36 288" class="st8" />
			<rect x="-17.6522" y="295.94" width="19.5546" height="9.59985" class="st9" />
			<text x="-17.65" y="303.14" class="st2">Books</text>		</g>
		<g id="shape18" transform="translate(166.5,-207)" class="dynamic-connector">
			
			<desc>Customer name. Customer address</desc>
			
			
			
			
			<path d="M6.18 324.01 L6.54 324.01 C24.56 324.08 49.39 324.7 61.23 330.2 C72 335.21 72 344.25 72 351" class="st8" />
			<rect x="8.36383" y="302.588" width="58.7302" height="19.1997" class="st7" />
			<text x="10.78" y="309.79" class="st2">Customer name.<tspan x="8.36" dy="1.2em" class="st3">Customer address</tspan></text>		</g>
		<g id="shape19" transform="translate(355.5,-207)" class="dynamic-connector">
			
			
			
			<path d="M-6.18 324 L-6.54 324 C-36.16 324.03 -80.27 324.46 -100.32 330.44 C-117 335.42 -117 344.25 -117 351" class="st8" />
		</g>
		<g id="shape21" transform="translate(175.5,-90)" class="dynamic-connector">
			
			<desc>Customer name, Customer Address</desc>
			
			
			
			
			<path d="M0.7 317.86 L0.74 317.5 C7.82 287.89 63 286.27 63 261" class="st8" />
			<rect x="-20.7634" y="265.002" width="59.5269" height="19.1997" class="st9" />
			<text x="-17.93" y="272.2" class="st2">Customer name,<tspan x="-20.76" dy="1.2em" class="st3">Customer Address</tspan></text>		</g>
		<g id="shape36" transform="translate(76.5,-130.5)" class="dynamic-connector">
			
			<desc>Billing information</desc>
			
			
			
			
			<path d="M-6.14 323.31 L-6.5 323.27 C-17.71 320.36 -15.95 309.51 -3.3 302.88 C16.5 292.5 63 292.5 63 274.5" class="st8" />
			<rect x="-48.2843" y="286.584" width="38.648" height="19.1997" class="st9" />
			<text x="-38.79" y="293.78" class="st2">Billing<tspan x="-48.28" dy="1.2em" class="st3">information</tspan></text>		</g>
		<g id="shape38" transform="translate(148.5,-63)" class="dynamic-connector">
			
			<desc>Customer name, Invoice details</desc>
			
			
			
			
			<path d="M-6.18 323.95 L-6.54 323.94 C-16.94 323.68 -29.22 322.26 -36.13 314.38 C-45 304.26 -45 283.5 -45 270" class="st8" />
			<rect x="-100.398" y="291.799" width="53.8668" height="19.1997" class="st9" />
			<text x="-100.4" y="299" class="st2">Customer name,<tspan x="-96.74" dy="1.2em" class="st3">Invoice details</tspan></text>		</g>
		<g id="shape40" transform="translate(202.5,-63)" class="dynamic-connector">
			
			<desc>Payments, inquiries</desc>
			
			
			
			
			<path d="M6.11 324.95 L6.46 325 C60.97 332.89 146.18 331.2 184.56 316.51 C216.14 304.41 216 283.5 216 270" class="st8" />
			<rect x="115.259" y="334.816" width="33.9645" height="19.1997" class="st7" />
			<text x="115.26" y="342.02" class="st2">Payments,<tspan x="118.23" dy="1.2em" class="st3">inquiries</tspan></text>		</g>
		<g id="shape41" transform="translate(418.5,-117)" class="dynamic-connector">
			
			<desc>Invoices, statements</desc>
			
			
			
			
			<path d="M-4.85 327.84 L-5.13 328.06 C-22.7 331.61 -81.28 317.52 -115.31 321.85 C-167.28 328.46 -162 378 -216 378" class="st8" />
			<rect x="-111.82" y="334.989" width="36.6828" height="19.1997" class="st9" />
			<text x="-107.67" y="342.19" class="st2">Invoices,<tspan x="-111.82" dy="1.2em" class="st3">statements</tspan></text>		</g>
	</g>
<SvgPublishData xmlns="http://vispublish">{"shapes":{"shape1":{"ShapeId":"shape1","Props":{"Cost":null,"Duration":null,"Resources":null},"ConnectedTo":["shape2"],"Layers":[1],"Text":"Customers","MasterName":"External interactor"},"shape2":{"ShapeId":"shape2","Props":{"Cost":null,"Duration":null,"Resources":null},"ConnectedTo":["shape17"],"ConnectedFrom":["shape1","shape9","shape35"],"Layers":[1],"Text":"Receive \nOrder","MasterName":"Data process"},"shape3":{"ShapeId":"shape3","Props":{"Cost":null,"Duration":null,"Resources":null},"ConnectedFrom":["shape4"],"Layers":[1],"Text":"Ware house","MasterName":"External interactor"},"shape4":{"ShapeId":"shape4","Props":{"Cost":null,"Duration":null,"Resources":null},"ConnectedTo":["shape3","shape17"],"ConnectedFrom":["shape9","shape5"],"Layers":[1],"Text":"Ship Books","MasterName":"Data process"},"shape5":{"ShapeId":"shape5","Props":{"Cost":null,"Duration":null,"Resources":null},"ConnectedTo":["shape4","shape20"],"ConnectedFrom":["shape20"],"Layers":[1],"Text":"Customers","MasterName":"External interactor"},"shape9":{"ShapeId":"shape9","Props":{"Cost":null,"Duration":null,"Resources":null},"ConnectedTo":["shape2","shape4"],"Layers":[1],"Text":"Orders","MasterName":"External interactor"},"shape17":{"ShapeId":"shape17","Props":{"Cost":null,"Duration":null,"Resources":null},"ConnectedFrom":["shape2","shape4","shape20"],"Layers":[1],"Text":"Customers","MasterName":"External interactor"},"shape20":{"ShapeId":"shape20","Props":{"Cost":null,"Duration":null,"Resources":null},"ConnectedTo":["shape17","shape35","shape5"],"ConnectedFrom":["shape5"],"Layers":[1],"Text":"Collect\nPayment","MasterName":"Data process"},"shape35":{"ShapeId":"shape35","Props":{"Cost":null,"Duration":null,"Resources":null},"ConnectedTo":["shape2"],"ConnectedFrom":["shape20"],"Layers":[1],"Text":"Invoices","MasterName":"External interactor"},"shape6":{"ShapeId":"shape6","Props":{"Description":null,"ID":null},"Layers":[2],"Text":"Orders","MasterName":"Dynamic connector"},"shape8":{"ShapeId":"shape8","Props":{"Description":null,"ID":null},"Layers":[2],"Text":"Invalid orders","MasterName":"Dynamic connector"},"shape10":{"ShapeId":"shape10","Props":{"Description":null,"ID":null},"Layers":[2],"Text":"Order\ndetails","MasterName":"Dynamic connector"},"shape11":{"ShapeId":"shape11","Props":{"Description":null,"ID":null},"Layers":[2],"Text":"Shipping \nDetails","MasterName":"Dynamic connector"},"shape14":{"ShapeId":"shape14","Props":{"Description":null,"ID":null},"Layers":[2],"Text":"Books","MasterName":"Dynamic connector"},"shape15":{"ShapeId":"shape15","Props":{"Description":null,"ID":null},"Layers":[2],"Text":"Books","MasterName":"Dynamic connector"},"shape18":{"ShapeId":"shape18","Props":{"Description":null,"ID":null},"Layers":[2],"Text":"Customer name.\nCustomer address","MasterName":"Dynamic connector"},"shape19":{"ShapeId":"shape19","Props":{"Description":null,"ID":null},"Layers":[2],"Text":"","MasterName":"Dynamic connector"},"shape21":{"ShapeId":"shape21","Props":{"Description":null,"ID":null},"Layers":[2],"Text":"Customer name,\nCustomer Address","MasterName":"Dynamic connector"},"shape36":{"ShapeId":"shape36","Props":{"Description":null,"ID":null},"Layers":[2],"Text":"Billing\ninformation","MasterName":"Dynamic connector"},"shape38":{"ShapeId":"shape38","Props":{"Description":null,"ID":null},"Layers":[2],"Text":"Customer name,\nInvoice details","MasterName":"Dynamic connector"},"shape40":{"ShapeId":"shape40","Props":{"Description":null,"ID":null},"Layers":[2],"Text":"Payments,\ninquiries","MasterName":"Dynamic connector"},"shape41":{"ShapeId":"shape41","Props":{"Description":null,"ID":null},"Layers":[2],"Text":"Invoices,\nstatements","MasterName":"Dynamic connector"}},"pages":[{"Name":"Page-1","Id":5,"FileName":"CustomerFlow.svg"}],"currentPage":{"Name":"Page-1","Id":5,"FileName":"CustomerFlow.svg"},"layers":[{"Name":"Flowchart","Index":1,"Visible":true},{"Name":"Connector","Index":2,"Visible":true}],"enableProps":true,"twoFingersTouch":false,"enableAutoFrameHeight":false,"enableLinks":true,"enablePages":true,"enablePageLookup":false,"enablePageSort":false,"enableZoomCtrl":false,"enableZoomShift":false,"enableSearch":false,"enableMultiPageSearch":false,"enableSidebar":true,"enableTooltips":true,"enableSelection":true,"enableHover":true,"enableLayers":false,"enableFollowHyperlinks":true,"openHyperlinksInNewWindow":true,"transformVisioFileLinks":false,"useReadablePageNames":true,"keepRelativeLinks":true,"rightSidebar":false,"alwaysHideSidebar":false,"showSidebarOnSelection":false,"enableSidbarTitle":false,"enableSidebarMarkdown":false,"enableTooltipMarkdown":false,"enableD3":false,"skipMinification":false,"enableBootstrapSwitch":false,"enableBootstrapSelect":false,"tooltipPlacement":"","popoverPlacement":"","enablePopovers":false,"enablePopoverMarkdown":false,"enableContentMarkdown":false,"tooltipTrigger":"","tooltipOutsideClick":false,"tooltipUseMousePosition":false,"tooltipInteractive":false,"tooltipDelay":false,"popoverTrigger":"","popoverTimeout":false,"popoverOutsideClick":false,"popoverKeepOnHover":false,"popoverUseMousePosition":false,"enableContainerTip":false,"suppressMobileTip":false,"enablePropertySearch":false,"enablePropertySearchFilter":false,"processNested":false,"processBackground":false,"viewBox":"0 0 468 324","layerView":{"enableLayerLookup":false,"enableLayerSort":false,"enableLayerToggles":false,"enableLayerShowAll":false},"selectionView":{"enableBoxSelection":false,"enableBlur":false,"blur":2,"enableDilate":true,"dilate":4,"mode":"normal","selectionColor":"rgba(255, 255, 0, 0.90)","hoverColor":"rgba(255, 255, 0, 0.30)","hyperlinkColor":"rgba(0, 0, 255, 0.30)","enablePrevShapeColor":false,"prevShapeColor":"rgba(160, 255, 255, 0.90)","enableNextShapeColor":false,"nextShapeColor":"rgba(255, 160, 255, 0.90)"}}</SvgPublishData></svg>